<svg xmlns="http://www.w3.org/2000/svg" xmlns:xlink="http://www.w3.org/1999/xlink" width="184" height="184" viewBox="0 0 184 184"><defs><style>.a{fill:none;}.b{fill:#424043;}.c{filter:url(#a);}</style><filter id="a" x="21.667" y="1.667" width="140.667" height="179" filterUnits="userSpaceOnUse"><feOffset dy="3" input="SourceAlpha"/><feGaussianBlur stdDeviation="3" result="b"/><feFlood flood-opacity="0.161"/><feComposite operator="in" in2="b"/><feComposite in="SourceGraphic"/></filter></defs><path class="a" d="M0,0H184V184H0Z"/><g class="c" transform="matrix(1, 0, 0, 1, 0, 0)"><path class="b" d="M111.333,54.667h-7.667V39.333a38.333,38.333,0,1,0-76.667,0V54.667H19.333A15.378,15.378,0,0,0,4,70v76.667A15.378,15.378,0,0,0,19.333,162h92a15.378,15.378,0,0,0,15.333-15.333V70A15.378,15.378,0,0,0,111.333,54.667Zm-46,69a15.333,15.333,0,1,1,15.333-15.333A15.378,15.378,0,0,1,65.333,123.667Zm23.767-69H41.567V39.333a23.767,23.767,0,1,1,47.533,0Z" transform="translate(26.67 6.67)"/></g></svg>