<svg xmlns="http://www.w3.org/2000/svg" xmlns:xlink="http://www.w3.org/1999/xlink" width="184" height="185" viewBox="0 0 184 185"><defs><filter id="a" x="22" y="6" width="140.67" height="179" filterUnits="userSpaceOnUse"><feOffset dy="3" input="SourceAlpha"/><feGaussianBlur stdDeviation="3" result="b"/><feFlood flood-opacity="0.161"/><feComposite operator="in" in2="b"/><feComposite in="SourceGraphic"/></filter></defs><path d="M0,0H184V184H0Z" fill="none"/><g transform="matrix(1, 0, 0, 1, 0, 0)" filter="url(#a)"><path d="M2891.336-1153h-92a15.225,15.225,0,0,1-10.83-4.5,15.223,15.223,0,0,1-4.5-10.829V-1245a15.223,15.223,0,0,1,4.5-10.829,15.226,15.226,0,0,1,10.83-4.5H2869.1v-15.333a23.794,23.794,0,0,0-23.767-23.767,23.794,23.794,0,0,0-23.767,23.767H2807a38.062,38.062,0,0,1,3.014-14.916,38.233,38.233,0,0,1,8.218-12.185,38.229,38.229,0,0,1,12.185-8.218,38.064,38.064,0,0,1,14.917-3.014,38.064,38.064,0,0,1,14.917,3.014,38.235,38.235,0,0,1,12.186,8.218,38.234,38.234,0,0,1,8.218,12.185,38.064,38.064,0,0,1,3.014,14.916v15.333h7.667a15.224,15.224,0,0,1,10.829,4.5,15.224,15.224,0,0,1,4.5,10.829v76.667a15.224,15.224,0,0,1-4.5,10.829A15.224,15.224,0,0,1,2891.336-1153Zm-45.836-69a15.517,15.517,0,0,0-15.5,15.5,15.518,15.518,0,0,0,15.5,15.5,15.518,15.518,0,0,0,15.5-15.5A15.517,15.517,0,0,0,2845.5-1222Z" transform="translate(-2753 1326)" fill="#424043"/></g></svg>