<?xml version="1.0" standalone="no"?>
<!DOCTYPE svg PUBLIC "-//W3C//DTD SVG 20010904//EN"
 "http://www.w3.org/TR/2001/REC-SVG-20010904/DTD/svg10.dtd">
<svg version="1.0" xmlns="http://www.w3.org/2000/svg"
 width="700.000000pt" height="700.000000pt" viewBox="0 0 700.000000 700.000000"
 preserveAspectRatio="xMidYMid meet">
<metadata>
Created by potrace 1.11, written by Peter Selinger 2001-2013
</metadata>
<g transform="translate(0.000000,700.000000) scale(0.100000,-0.100000)"
fill="#000000" stroke="none">
<path d="M3069 6996 c-2 -2 -37 -7 -78 -10 -100 -9 -341 -50 -442 -76 -46 -12
-92 -23 -101 -25 -31 -6 -231 -73 -308 -103 -782 -303 -1394 -862 -1775 -1621
-36 -71 -65 -131 -65 -134 0 -3 -13 -34 -29 -69 -54 -117 -155 -430 -187 -581
-19 -86 -43 -222 -49 -272 -4 -33 -9 -68 -11 -77 -27 -153 -26 -907 1 -1043 3
-11 7 -38 10 -60 25 -183 105 -527 144 -620 5 -11 28 -72 51 -135 84 -227 217
-484 368 -712 126 -190 238 -325 411 -498 467 -466 1037 -769 1691 -900 58
-12 123 -23 145 -26 22 -2 49 -6 60 -9 67 -14 226 -20 585 -20 475 0 545 5
805 56 433 86 818 245 1200 495 248 163 528 410 690 610 39 48 75 92 80 98 6
6 38 49 72 96 240 332 438 745 542 1133 22 80 56 229 65 282 21 123 27 171 46
345 9 79 6 747 -3 790 -3 14 -8 54 -12 90 -5 57 -13 109 -40 260 -41 233 -158
583 -280 835 -72 150 -201 377 -217 383 -4 2 -8 8 -8 14 0 5 -18 35 -40 66
-22 31 -48 68 -58 82 -9 13 -61 78 -114 145 -292 363 -690 677 -1119 884 -70
34 -129 61 -133 61 -3 0 -29 11 -58 24 -48 22 -299 110 -345 121 -10 3 -54 14
-98 25 -134 34 -279 62 -395 76 -30 3 -66 8 -80 11 -31 6 -915 15 -921 9z
m696 -1182 c177 -22 194 -25 325 -61 195 -53 422 -149 557 -236 24 -15 45 -27
48 -27 10 0 153 -105 233 -172 235 -197 421 -436 562 -723 102 -208 194 -505
215 -695 4 -30 9 -66 12 -80 9 -45 11 -493 2 -565 -16 -136 -20 -161 -40 -255
-121 -572 -455 -1069 -924 -1376 -103 -68 -107 -70 -235 -134 -141 -71 -369
-151 -495 -174 -220 -41 -288 -47 -550 -46 -249 1 -315 5 -455 30 -149 27
-154 28 -262 60 -422 125 -791 375 -1070 722 -43 53 -78 100 -78 103 0 4 -13
24 -28 44 -53 68 -152 244 -199 356 -96 225 -149 412 -178 630 -3 28 -9 66
-12 85 -9 59 -10 450 -1 540 50 517 267 997 613 1354 173 178 434 356 680 463
129 56 360 124 470 139 28 3 52 8 56 9 3 2 39 7 80 11 40 3 76 8 78 10 10 9
502 0 596 -12z"/>
<path d="M3350 4923 c-350 -61 -607 -361 -614 -718 -1 -60 7 -126 27 -211 11
-44 52 -131 94 -197 52 -82 137 -166 221 -219 34 -22 62 -44 62 -49 0 -5 -9
-42 -21 -82 -11 -39 -29 -106 -40 -147 -11 -41 -43 -154 -71 -250 -27 -96 -52
-184 -54 -195 -2 -11 -13 -49 -24 -85 -37 -122 -199 -707 -200 -720 0 -3 345
-5 768 -5 479 1 766 5 766 10 -2 10 -42 162 -139 530 -65 242 -126 475 -130
495 -13 52 -107 403 -119 443 l-14 47 56 44 c191 148 294 365 287 603 -3 93
-9 127 -37 213 -98 297 -385 502 -698 498 -52 0 -106 -3 -120 -5z"/>
</g>
</svg>
